<svg width="150" height="150" viewBox="0 0 150 150" fill="none" xmlns="http://www.w3.org/2000/svg">
<path fill-rule="evenodd" clip-rule="evenodd" d="M25 66.8029C25 40.2683 47.3902 18.75 75 18.75C102.61 18.75 125 40.2683 125 66.8029C125 90.098 112.805 106.122 100.976 116.117C96.0065 120.293 90.5756 123.932 84.7805 126.97C82.5157 128.16 80.1909 129.241 77.8146 130.209L77.3659 130.387L77.2293 130.434L77.1854 130.453L77.1707 130.458L75 124.982L72.8341 130.462L72.8293 130.458L72.8098 130.453L72.7659 130.434L72.6341 130.387L72.1805 130.209C69.8059 129.241 67.4827 128.159 65.2195 126.97C59.4244 123.932 53.9935 120.293 49.0244 116.117C37.1902 106.122 25 90.098 25 66.8029ZM75 124.982L77.161 130.462L75 131.25L72.839 130.462L75 124.982ZM75 118.597C81.487 115.646 87.5195 111.848 92.9268 107.313C103.044 98.7663 112.805 85.7006 112.805 66.8029C112.805 57.1669 108.822 47.9255 101.732 41.1118C94.6423 34.2981 85.0265 30.4702 75 30.4702C64.9735 30.4702 55.3577 34.2981 48.2679 41.1118C41.1781 47.9255 37.1951 57.1669 37.1951 66.8029C37.1951 85.7052 46.9512 98.7663 57.0732 107.313C62.4805 111.848 68.513 115.646 75 118.597ZM79.8781 78.134C79.8777 75.6528 80.5243 73.2111 81.7589 71.032C82.9934 68.8529 84.7765 67.0059 86.9452 65.6598C89.1139 64.3136 91.5991 63.5113 94.1736 63.3261C96.7481 63.1408 99.3298 63.5787 101.683 64.5995L102.522 64.9652L102.902 65.7715C104.195 68.5205 104.585 71.5826 104.021 74.55C103.458 77.5175 101.967 80.2496 99.7476 82.3826C97.5282 84.5156 94.6854 85.9483 91.5977 86.4899C88.5099 87.0316 85.3238 86.6565 82.4634 85.4146L81.6244 85.0489L81.2439 84.2426C80.3659 82.3767 79.8781 80.3046 79.8781 78.134ZM54.6732 63.2868C52.4146 63.2868 50.2585 63.7556 48.3171 64.5995L47.478 64.9652L47.0976 65.7715C45.8054 68.5205 45.4151 71.5826 45.9787 74.55C46.5423 77.5175 48.033 80.2496 50.2524 82.3826C52.4718 84.5156 55.3146 85.9483 58.4023 86.4899C61.4901 87.0316 64.6762 86.6565 67.5366 85.4146L68.3756 85.0489L68.7561 84.2426C69.8183 81.9811 70.2738 79.4999 70.0811 77.0257C69.8884 74.5514 69.0535 72.163 67.6529 70.0788C66.2522 67.9945 64.3303 66.2809 62.0629 65.0944C59.7955 63.9079 57.2549 63.2865 54.6732 63.2868Z" fill="white"/>
</svg>
